<svg width="62" height="13" viewBox="0 0 62 13" fill="none" xmlns="http://www.w3.org/2000/svg">
<path d="M11.1 2.4002C11.2 2.5002 11.2 2.6002 11.2 2.8002C11.2 3.4002 10.9 3.6002 10.3 3.6002H9.9C9.4 3.6002 9 3.5002 8.5 3.5002C8 3.5002 7.5 3.5002 7 3.5002H6.5C6.4 4.7002 6.3 5.8002 6.2 6.7002H8.3C8.6 6.7002 8.8 6.8002 8.9 6.9002C9 7.0002 9 7.0002 9 7.1002C9 7.4002 8.9 7.6002 8.8 7.7002C8.6 7.9002 8.4 7.9002 8.1 7.9002H6V8.5002C5.8 9.8002 5.5 10.8002 4.9 11.3002C4.4 11.9002 3.6 12.1002 2.6 12.1002C2.1 12.1002 1.6 12.0002 1.1 11.7002C0.599998 11.4002 0.299998 11.2002 0.0999985 10.8002C-1.52737e-06 10.7002 0 10.5002 0 10.3002C0 10.1002 -1.52737e-06 9.9002 0.0999985 9.8002C0.199998 9.7002 0.300002 9.6002 0.400002 9.6002C0.500002 9.6002 0.600001 9.6002 0.700001 9.7002C0.800001 9.8002 0.899998 9.9002 1.1 10.1002C1.5 10.6002 2 10.9002 2.5 10.9002C3 10.9002 3.3 10.7002 3.6 10.3002C3.9 9.9002 4.1 9.3002 4.2 8.5002L4.3 7.8002H3.7C3.5 7.8002 3.4 7.7002 3.2 7.6002C3 7.5002 3 7.3002 3 7.2002C3 7.0002 3.1 6.8002 3.2 6.6002C3.3 6.4002 3.5 6.4002 3.8 6.4002C4 6.4002 4.2 6.4002 4.5 6.4002C4.6 5.5002 4.7 4.5002 4.8 3.2002C3.9 3.3002 3.3 3.4002 3 3.6002C2.6 3.8002 2.5 4.1002 2.5 4.5002C2.5 4.8002 2.6 5.0002 2.7 5.3002C2.7 5.4002 2.8 5.4002 2.8 5.5002C2.8 5.6002 2.7 5.8002 2.6 5.9002C2.5 6.0002 2.3 6.1002 2.1 6.1002C1.9 6.1002 1.7 6.0002 1.5 5.9002C1.4 5.8002 1.3 5.7002 1.2 5.4002C1.1 5.2002 1.1 4.9002 1.1 4.6002C1.1 3.6002 1.6 2.9002 2.6 2.4002C3.6 2.0002 5.1 1.7002 7.1 1.7002C8.5 1.7002 9.7 1.8002 10.7 1.9002C10.9 2.2002 11.1 2.2002 11.1 2.4002Z" fill="black"/>
<path d="M15.4004 8.6002C15.5004 8.7002 15.5004 8.8002 15.5004 9.0002C15.5004 9.4002 15.4004 9.6002 15.2004 9.7002C14.7004 9.9002 14.2004 10.0002 13.6004 10.0002C13.4004 10.7002 13.1004 11.2002 12.7004 11.6002C12.3004 12.0002 11.7004 12.2002 11.2004 12.2002C10.7004 12.2002 10.3004 12.1002 10.0004 11.9002C9.70039 11.7002 9.40039 11.4002 9.20039 11.0002C9.00039 10.6002 8.90039 10.2002 8.90039 9.8002C8.90039 9.2002 9.00039 8.7002 9.20039 8.2002C9.40039 7.7002 9.80039 7.4002 10.2004 7.1002C10.6004 6.8002 11.1004 6.7002 11.6004 6.7002C12.2004 6.7002 12.7004 6.9002 13.1004 7.3002C13.5004 7.7002 13.7004 8.2002 13.8004 8.9002C14.2004 8.9002 14.6004 8.8002 15.1004 8.7002C15.2004 8.7002 15.2004 8.7002 15.3004 8.7002C15.3004 8.4002 15.3004 8.5002 15.4004 8.6002ZM11.9004 10.6002C12.1004 10.4002 12.2004 10.1002 12.3004 9.7002C12.1004 9.5002 11.9004 9.3002 11.7004 9.0002C11.6004 8.7002 11.5004 8.4002 11.5004 8.1002C11.5004 8.0002 11.5004 7.8002 11.5004 7.7002H11.4004C11.1004 7.7002 10.8004 7.9002 10.6004 8.2002C10.4004 8.5002 10.3004 8.9002 10.3004 9.5002C10.3004 9.9002 10.4004 10.3002 10.6004 10.5002C10.8004 10.7002 11.0004 10.8002 11.2004 10.8002C11.5004 10.9002 11.7004 10.8002 11.9004 10.6002Z" fill="black"/>
<path d="M19.2 9.5998C19.3 9.6998 19.3 9.79981 19.3 9.99981C19.3 10.2998 19.2 10.5998 19.1 10.6998C18.8 11.0998 18.4 11.4998 18 11.6998C17.6 11.8998 17.1 12.0998 16.6 12.0998C15.9 12.0998 15.4 11.7998 15 11.0998C14.6 10.3998 14.5 9.5998 14.5 8.5998C14.5 7.5998 14.6 6.49981 14.9 5.29981C15.2 4.09981 15.5 2.9998 16 2.0998C16.5 1.1998 17.1 0.799805 17.8 0.799805C18.2 0.799805 18.5 0.999808 18.7 1.29981C18.9 1.59981 19 2.19981 19 2.79981C19 3.79981 18.7 4.8998 18.2 6.0998C17.7 7.2998 17 8.59981 16.1 9.79981C16.2 10.0998 16.2 10.3998 16.4 10.4998C16.5 10.5998 16.7 10.6998 16.9 10.6998C17.2 10.6998 17.5 10.5998 17.8 10.3998C18.1 10.1998 18.4 9.89981 18.7 9.39981C18.8 9.29981 18.9 9.1998 19 9.1998C19.1 9.3998 19.2 9.4998 19.2 9.5998ZM16.9 2.99981C16.7 3.69981 16.5 4.49981 16.3 5.49981C16.1 6.49981 16 7.39981 16 8.29981C16.6 7.39981 17 6.39981 17.4 5.49981C17.8 4.59981 17.9 3.69981 17.9 2.89981C17.9 2.29981 17.8 1.99981 17.6 1.99981C17.3 1.99981 17.1 2.29981 16.9 2.99981Z" fill="black"/>
<path d="M23.2 9.5998C23.3 9.6998 23.3 9.79981 23.3 9.99981C23.3 10.2998 23.2 10.5998 23.1 10.6998C22.8 11.0998 22.4 11.4998 22 11.6998C21.6 11.8998 21.1 12.0998 20.6 12.0998C19.9 12.0998 19.4 11.7998 19 11.0998C18.6 10.3998 18.5 9.5998 18.5 8.5998C18.5 7.5998 18.6 6.49981 18.9 5.29981C19.2 4.09981 19.5 2.9998 20 2.0998C20.5 1.1998 21.1 0.799805 21.8 0.799805C22.2 0.799805 22.5 0.999808 22.7 1.29981C22.9 1.59981 23 2.19981 23 2.79981C23 3.79981 22.7 4.8998 22.2 6.0998C21.7 7.2998 21 8.59981 20.1 9.79981C20.2 10.0998 20.2 10.3998 20.4 10.4998C20.5 10.5998 20.7 10.6998 20.9 10.6998C21.2 10.6998 21.5 10.5998 21.8 10.3998C22.1 10.1998 22.4 9.89981 22.7 9.39981C22.8 9.29981 22.9 9.1998 23 9.1998C23 9.3998 23.1 9.4998 23.2 9.5998ZM20.8 2.99981C20.6 3.69981 20.4 4.49981 20.2 5.49981C20 6.49981 19.9 7.39981 19.9 8.29981C20.5 7.39981 20.9 6.39981 21.3 5.49981C21.7 4.59981 21.8 3.69981 21.8 2.89981C21.8 2.29981 21.7 1.99981 21.5 1.99981C21.2 1.99981 21 2.29981 20.8 2.99981Z" fill="black"/>
<path d="M28.5996 8.6002C28.6996 8.7002 28.6996 8.8002 28.6996 9.0002C28.6996 9.4002 28.5996 9.6002 28.3996 9.7002C27.8996 9.9002 27.3996 10.0002 26.7996 10.0002C26.5996 10.7002 26.2996 11.2002 25.8996 11.6002C25.4996 12.0002 24.8996 12.2002 24.3996 12.2002C23.8996 12.2002 23.4996 12.1002 23.1996 11.9002C22.8996 11.7002 22.5996 11.4002 22.3996 11.0002C22.1996 10.6002 22.0996 10.2002 22.0996 9.8002C22.0996 9.2002 22.1996 8.7002 22.3996 8.2002C22.5996 7.7002 22.9996 7.4002 23.3996 7.1002C23.7996 6.8002 24.2996 6.7002 24.7996 6.7002C25.3996 6.7002 25.8996 6.9002 26.2996 7.3002C26.6996 7.7002 26.8996 8.2002 26.9996 8.9002C27.3996 8.9002 27.7996 8.8002 28.2996 8.7002C28.3996 8.7002 28.3996 8.7002 28.4996 8.7002C28.4996 8.4002 28.5996 8.5002 28.5996 8.6002ZM25.0996 10.6002C25.2996 10.4002 25.3996 10.1002 25.4996 9.7002C25.2996 9.5002 25.0996 9.3002 24.8996 9.0002C24.7996 8.7002 24.6996 8.4002 24.6996 8.1002C24.6996 8.0002 24.6996 7.8002 24.6996 7.7002H24.5996C24.2996 7.7002 23.9996 7.9002 23.7996 8.2002C23.5996 8.5002 23.4996 8.9002 23.4996 9.5002C23.4996 9.9002 23.5996 10.3002 23.7996 10.5002C23.9996 10.7002 24.1996 10.8002 24.3996 10.8002C24.6996 10.9002 24.8996 10.8002 25.0996 10.6002Z" fill="black"/>
<path d="M35.7004 6.9C35.7004 7 35.7004 7.1 35.6004 7.3C35.0004 8.8 34.3004 10 33.8004 11C33.5004 11.5 33.3004 11.8 33.0004 11.9C32.7004 12 32.5004 12.2 32.2004 12.2C31.9004 12.2 31.6004 12.1 31.5004 11.8C31.4004 11.5 31.2004 11.1 31.2004 10.6C31.2004 10.4 31.2004 10.1 31.2004 9.7C31.0004 10.4 30.7004 10.9 30.5004 11.3C30.3004 11.7 30.1004 11.9 29.9004 12.1C29.7004 12.2 29.5004 12.3 29.2004 12.3C28.9004 12.3 28.6004 12.2 28.4004 11.9C28.2004 11.6 28.1004 11.2 28.0004 10.7C27.9004 9.6 27.9004 8.6 27.9004 7.8V7.4C27.9004 7.1 28.0004 6.9 28.1004 6.8C28.2004 6.7 28.4004 6.7 28.7004 6.7C28.9004 6.7 29.1004 6.7 29.2004 6.8C29.3004 6.9 29.3004 7 29.3004 7.3C29.3004 8.2 29.4004 9.4 29.5004 10.9C29.8004 10.3 30.0004 9.8 30.2004 9.3C30.4004 8.8 30.7004 8.1 31.0004 7.3C31.1004 7.1 31.2004 6.9 31.3004 6.8C31.4004 6.7 31.6004 6.7 31.7004 6.7C31.9004 6.7 32.1004 6.7 32.2004 6.8C32.3004 6.9 32.4004 7 32.4004 7.3V9C32.4004 9.8 32.4004 10.4 32.4004 10.7C32.8004 10.1 33.1004 9.5 33.3004 9C33.5004 8.5 33.8004 7.9 34.1004 7.1C34.2004 6.9 34.3004 6.7 34.4004 6.6C34.5004 6.5 34.7004 6.5 34.9004 6.5C35.4004 6.5 35.7004 6.6 35.7004 6.9Z" fill="black"/>
<path d="M39.7998 11.6C39.1998 11.2 38.7998 10.6 38.7998 9.7C38.7998 9.3 38.8998 8.9 38.9998 8.7C39.1998 8.5 39.3998 8.4 39.6998 8.4C39.8998 8.4 40.0998 8.5 40.1998 8.6C40.2998 8.7 40.3998 8.9 40.3998 9C40.3998 9.2 40.3998 9.3 40.3998 9.4C40.3998 9.4 40.3998 9.5 40.3998 9.6C40.3998 9.7 40.3998 9.8 40.3998 9.9C40.3998 10.3 40.5998 10.5 40.8998 10.7C41.2998 10.9 41.7998 11 42.3998 11C43.0998 11 43.5998 10.9 43.9998 10.6C44.3998 10.4 44.5998 10 44.5998 9.6C44.5998 9.3 44.4998 9.1 44.2998 8.9C44.0998 8.7 43.8998 8.5 43.5998 8.4C43.2998 8.3 42.9998 8.1 42.4998 7.9C41.8998 7.7 41.3998 7.4 40.9998 7.2C40.5998 7 40.2998 6.7 39.9998 6.3C39.6998 5.9 39.5998 5.5 39.5998 4.9C39.5998 4.3 39.7998 3.8 40.0998 3.4C40.3998 3 40.8998 2.6 41.3998 2.4C41.8998 2.2 42.6998 2 43.3998 2C43.9998 2 44.4998 2.1 44.9998 2.3C45.4998 2.5 45.8998 2.7 46.1998 3.1C46.4998 3.5 46.5998 3.9 46.5998 4.4C46.5998 4.9 46.4998 5.3 46.3998 5.5C46.1998 5.8 45.9998 5.9 45.6998 5.9C45.4998 5.9 45.2998 5.8 45.1998 5.7C45.0998 5.6 44.9998 5.4 44.9998 5.2C44.9998 5 44.9998 4.9 44.9998 4.8C44.9998 4.6 44.9998 4.4 44.9998 4.3C44.9998 4 44.7998 3.7 44.4998 3.5C44.1998 3.3 43.7998 3.2 43.2998 3.2C42.5998 3.2 42.0998 3.3 41.6998 3.6C41.2998 3.9 41.1998 4.2 41.1998 4.7C41.1998 5 41.2998 5.3 41.4998 5.5C41.6998 5.7 41.8998 5.9 42.1998 6C42.4998 6.1 42.8998 6.3 43.3998 6.5C43.9998 6.7 44.4998 7 44.8998 7.2C45.2998 7.4 45.5998 7.7 45.7998 8C46.0998 8.3 46.1998 8.8 46.1998 9.3C46.1998 10.2 45.7998 11 45.0998 11.5C44.3998 12 43.3998 12.3 42.1998 12.3C41.2998 12.2 40.3998 12 39.7998 11.6Z" fill="black"/>
<path d="M47.6002 11.6C47.3002 11.2 47.2002 10.8 47.2002 10.2C47.2002 9.6 47.3002 9 47.6002 8.4C47.9002 7.8 48.3002 7.4 48.8002 7C49.3002 6.7 49.8002 6.5 50.4002 6.5C50.6002 6.5 50.7002 6.5 50.8002 6.6C50.9002 6.7 50.9002 6.8 51.0002 7C51.2002 7 51.3002 7 51.5002 7C51.9002 7 52.1002 7.1 52.1002 7.4C52.1002 7.6 52.0002 8 51.9002 8.6C51.7002 9.5 51.6002 10.2 51.6002 10.5C51.6002 10.6 51.6002 10.7 51.7002 10.8C51.8002 10.9 51.8002 10.9 51.9002 10.9C52.1002 10.9 52.2002 10.8 52.5002 10.6C52.7002 10.4 53.0002 10.1 53.4002 9.6C53.5002 9.5 53.6002 9.4 53.7002 9.4C53.8002 9.4 53.9002 9.4 53.9002 9.5C54.0002 9.6 54.0002 9.7 54.0002 9.9C54.0002 10.2 53.9002 10.5 53.8002 10.6C53.5002 11 53.1002 11.4 52.8002 11.6C52.4002 11.9 52.1002 12 51.7002 12C51.4002 12 51.2002 11.9 51.0002 11.7C50.8002 11.5 50.6002 11.3 50.5002 11C50.1002 11.7 49.6002 12 48.9002 12C48.3002 12.2 47.9002 12 47.6002 11.6ZM49.7002 10.6C49.9002 10.4 50.0002 10.1 50.0002 9.8L50.4002 7.6C50.1002 7.6 49.8002 7.7 49.5002 8C49.2002 8.2 49.0002 8.6 48.8002 9C48.6002 9.4 48.5002 9.8 48.5002 10.3C48.5002 10.5 48.5002 10.7 48.7002 10.9C48.8002 11 48.9002 11.1 49.1002 11.1C49.4002 10.9 49.5002 10.8 49.7002 10.6Z" fill="black"/>
<path d="M57.7 9.59941C57.8 9.69941 57.8 9.79941 57.8 9.99941C57.8 10.2994 57.7 10.5994 57.6 10.6994C57.3 11.0994 56.9 11.4994 56.5 11.6994C56.1 11.9994 55.6 12.0994 55.1 12.0994C54.4 12.0994 53.9 11.7994 53.5 11.0994C53.1 10.3994 53 9.69941 53 8.69941C53 7.69941 53.1 6.59941 53.4 5.39941C53.7 4.19941 54 3.09941 54.5 2.19941C55 1.29941 55.6 0.899414 56.3 0.899414C56.7 0.899414 57 1.09941 57.2 1.39941C57.4 1.79941 57.5 2.29941 57.5 2.89941C57.5 3.89941 57.2 4.99941 56.7 6.19941C56.2 7.49941 55.5 8.69941 54.6 9.89941C54.7 10.1994 54.7 10.4994 54.9 10.5994C55 10.6994 55.2 10.7994 55.4 10.7994C55.7 10.7994 56 10.6994 56.3 10.4994C56.6 10.2994 56.9 9.99941 57.2 9.49941C57.3 9.39941 57.4 9.29942 57.5 9.29942C57.6 9.39942 57.7 9.49941 57.7 9.59941ZM55.4 2.99941C55.2 3.69941 55 4.49941 54.8 5.49941C54.6 6.49941 54.5 7.39942 54.5 8.29942C55.1 7.39942 55.5 6.39941 55.9 5.49941C56.2 4.59941 56.4 3.69941 56.4 2.89941C56.4 2.29941 56.3 1.99941 56.1 1.99941C55.8 1.99941 55.6 2.29941 55.4 2.99941Z" fill="black"/>
<path d="M61.4002 9.9C61.5002 10 61.5002 10.1 61.5002 10.3C61.5002 10.6 61.4002 10.8 61.3002 11C61.1002 11.3 60.8002 11.6 60.4002 11.8C60.0002 12 59.6002 12.1 59.1002 12.1C58.3002 12.1 57.7002 11.9 57.3002 11.4C56.9002 10.9 56.7002 10.3 56.7002 9.5C56.7002 8.9 56.8002 8.4 57.0002 8C57.2002 7.5 57.6002 7.1 58.0002 6.9C58.4002 6.6 58.9002 6.5 59.4002 6.5C59.9002 6.5 60.2002 6.6 60.5002 6.9C60.8002 7.2 60.9002 7.6 60.9002 8C60.9002 8.6 60.7002 9 60.3002 9.4C59.9002 9.8 59.2002 10.1 58.3002 10.3C58.5002 10.7 58.8002 10.9 59.3002 10.9C59.6002 10.9 59.9002 10.8 60.1002 10.7C60.3002 10.5 60.6002 10.3 60.8002 9.9C60.9002 9.8 61.0002 9.7 61.1002 9.7C61.2002 9.8 61.3002 9.8 61.4002 9.9ZM58.4002 8.2C58.2002 8.5 58.1002 9 58.1002 9.4C58.6002 9.3 58.9002 9.1 59.2002 8.9C59.5002 8.7 59.6002 8.4 59.6002 8.1C59.6002 7.9 59.6002 7.8 59.5002 7.7C59.4002 7.6 59.3002 7.6 59.2002 7.6C58.9002 7.7 58.6002 7.9 58.4002 8.2Z" fill="black"/>
</svg>
